<svg width="186" height="36" viewBox="0 0 186 36" fill="none" xmlns="http://www.w3.org/2000/svg">
<rect width="36" height="36" rx="8" fill="#C2292E"/>
<path d="M17.4354 14.4257H8.25395C7.75923 14.4261 7.28496 14.6231 6.93551 14.9733C6.58605 15.3235 6.39005 15.7981 6.39063 16.2929V23.3674C6.39063 23.409 6.39256 23.4504 6.39523 23.4918L10.2585 19.6206C10.2922 19.5868 10.3312 19.5589 10.374 19.5378L10.405 19.5068C10.4848 19.4267 10.5931 19.3817 10.7061 19.3817C10.8191 19.3817 10.9274 19.4267 11.0072 19.5068L12.2875 20.7905L14.385 18.6886C14.3978 18.6758 14.4114 18.6638 14.4257 18.6527L13.8507 18.0721C13.7611 17.9824 13.7349 17.8473 13.7844 17.7305C13.834 17.6138 13.9494 17.5388 14.0762 17.541L16.0493 17.579C16.2164 17.5822 16.351 17.7171 16.354 17.8842L16.3918 19.8616C16.3944 19.9884 16.3197 20.1041 16.2031 20.1538C16.0864 20.2036 15.9512 20.1773 15.8616 20.0876L15.1683 19.3934C15.1573 19.4077 15.1454 19.4213 15.1327 19.4341L12.801 21.7712C12.784 21.7981 12.7641 21.8232 12.7416 21.8458L12.5975 21.9899C12.5178 22.07 12.4095 22.115 12.2965 22.115C12.1835 22.115 12.0751 22.07 11.9954 21.9899L10.6911 20.682L6.8828 24.4987C6.86236 24.5195 6.83979 24.5381 6.81546 24.5542C7.16853 24.9854 7.69662 25.2353 8.25395 25.2348H10.3345L10.2936 26.8978L12.2499 25.2348H17.4354C17.9302 25.2343 18.4044 25.0374 18.7539 24.6872C19.1033 24.337 19.2993 23.8623 19.2988 23.3676V16.2929C19.2993 15.7981 19.1033 15.3235 18.7539 14.9733C18.4044 14.6231 17.9302 14.4261 17.4354 14.4257Z" fill="white"/>
<path fill-rule="evenodd" clip-rule="evenodd" d="M24.9022 19.9692L26.8883 21.6317V21.6305L26.8827 19.9682H27.979C28.9978 19.9669 29.8229 19.1404 29.8225 18.1216V11.0076C29.823 10.5178 29.6288 10.0479 29.2827 9.70138C28.9367 9.35481 28.4671 9.15998 27.9773 9.15979H18.7595C17.7405 9.16193 16.9155 9.9886 16.9155 11.0076V13.6867H17.4535C18.8784 13.693 20.031 14.8484 20.0337 16.2733V19.9692H24.9022ZM23.3689 16.3794C22.0605 16.3794 20.9822 15.6414 20.9136 14.6992H25.8242C25.7561 15.6414 24.6773 16.3794 23.3689 16.3794ZM25.8485 12.1472C25.5565 12.1476 25.3201 12.3844 25.3202 12.6764V13.0496C25.3202 13.2382 25.4208 13.4125 25.5842 13.5068C25.7475 13.6011 25.9487 13.6011 26.1121 13.5068C26.2754 13.4125 26.376 13.2382 26.376 13.0496V12.6764C26.376 12.3848 26.1401 12.1481 25.8485 12.1472ZM20.3617 12.6764C20.3616 12.3846 20.5977 12.1478 20.8895 12.1472C21.1813 12.1478 21.4175 12.3846 21.4175 12.6764V13.0109C21.4175 13.3024 21.1812 13.5388 20.8896 13.5388C20.5981 13.5388 20.3617 13.3024 20.3617 13.0109V12.6764Z" fill="white"/>
<path d="M54.424 16.674H62.218V18.42C61.786 20.022 61.084 21.39 60.094 22.542C61.03 23.19 62.146 23.784 63.424 24.288L62.416 25.926C60.994 25.278 59.788 24.558 58.816 23.766C57.682 24.666 56.332 25.404 54.784 25.944L53.758 24.36C55.18 23.856 56.386 23.226 57.394 22.47C56.296 21.282 55.558 19.95 55.162 18.51H54.424V16.674ZM56.908 18.51C57.25 19.536 57.826 20.472 58.636 21.318C59.392 20.49 59.968 19.554 60.382 18.51H56.908ZM55.306 9.708H61.408V13.38C61.408 13.776 61.588 13.974 61.984 13.974H63.154V15.72H61.444C60.184 15.72 59.554 15.072 59.554 13.794V11.472H57.16V12.228C57.16 14.028 56.458 15.432 55.09 16.44L53.83 15C54.802 14.388 55.306 13.542 55.306 12.426V9.708ZM53.542 9.708V24.018C53.542 25.206 52.912 25.818 51.67 25.818H50.338L49.888 24.162C50.356 24.216 50.77 24.252 51.166 24.252C51.58 24.252 51.796 23.964 51.796 23.388V19.824C51.04 20.004 50.266 20.148 49.438 20.292C49.258 22.542 48.79 24.414 48.016 25.926L46.612 24.648C47.386 23.1 47.782 21.12 47.8 18.708V9.708H53.542ZM49.51 18.564C50.338 18.438 51.094 18.294 51.796 18.15V16.062C51.04 15.846 50.284 15.684 49.51 15.54V18.564ZM49.51 13.974C50.284 14.118 51.04 14.28 51.796 14.478V11.4H49.51V13.974ZM67.15 11.076H74.152C73.9 10.464 73.63 9.906 73.324 9.384L75.358 9.06C75.61 9.654 75.862 10.32 76.096 11.076H83.242V12.894H76.15V14.694H82V21.408C82 22.596 81.37 23.208 80.128 23.208H78.292L77.806 21.444L79.516 21.534C79.912 21.534 80.128 21.354 80.128 20.994V16.476H76.15V25.872H74.242V16.476H70.48V23.334H68.626V14.694H74.242V12.894H67.15V11.076ZM88.48 12.372C88.804 13.848 89.074 15.522 89.326 17.43L87.886 17.808C87.652 16.08 87.364 14.424 87.022 12.84L88.48 12.372ZM89.488 9.366H91.216V13.452C91.648 12.894 92.026 12.336 92.35 11.778L93.376 13.074C92.818 13.902 92.098 14.73 91.216 15.54V15.828C91.198 17.16 91.126 18.366 90.982 19.464C91.648 20.31 92.314 21.246 92.998 22.29L91.954 23.874C91.45 22.848 91.018 22.002 90.64 21.336C90.208 23.226 89.524 24.756 88.588 25.908L87.202 24.684C88.696 22.848 89.452 19.896 89.488 15.828V9.366ZM93.826 9.654H102.682V14.658H101.008V15.414H103.222V16.746H101.008V17.556H103.564V18.96H101.224C101.836 19.608 102.7 20.184 103.852 20.706L102.808 22.02C102.304 21.696 101.872 21.39 101.476 21.066C101.08 21.444 100.63 21.786 100.126 22.11L99.298 21.03C99.73 20.742 100.126 20.418 100.45 20.094C100.126 19.716 99.838 19.338 99.622 18.96H96.832C96.544 19.41 96.184 19.824 95.788 20.202C96.22 20.526 96.58 20.868 96.904 21.21L95.896 22.218C95.59 21.858 95.176 21.462 94.672 21.066C94.276 21.318 93.862 21.57 93.43 21.786L92.53 20.292C93.61 19.932 94.474 19.482 95.086 18.96H92.548V17.556H95.536V16.746H93.268V15.414H95.536V14.658H93.826V9.654ZM97.192 17.556H99.37V16.746H97.192V17.556ZM99.37 15.414V14.658H97.192V15.414H99.37ZM101.062 13.434V12.768H95.446V13.434H101.062ZM95.446 11.634H101.062V10.932H95.446V11.634ZM97.516 25.854H96.184L95.806 24.252C96.22 24.324 96.598 24.36 96.958 24.36C97.192 24.36 97.318 24.216 97.318 23.928V19.464H99.082V24.36C99.082 25.35 98.56 25.854 97.516 25.854ZM96.544 22.11L96.94 23.46C96.004 24.072 94.834 24.63 93.43 25.116L92.728 23.514C94.204 23.136 95.482 22.668 96.544 22.11ZM100.018 22.326C101.278 22.794 102.412 23.352 103.438 24L102.484 25.494C101.404 24.666 100.306 24.018 99.172 23.55L100.018 22.326ZM109.072 10.698C109.378 11.778 109.666 13.038 109.918 14.442L108.478 14.838C108.226 13.578 107.902 12.354 107.524 11.202L109.072 10.698ZM113.05 10.518L114.616 10.734C114.508 12.228 114.274 13.56 113.896 14.712L112.51 14.262C112.798 13.182 112.978 11.922 113.05 10.518ZM107.758 15.36H110.296V9.204H112.132V15.36H114.472V17.178H112.132V25.818H110.296V17.178H107.758V15.36ZM120.412 9.258H122.23V19.284L123.688 19.068L123.994 20.868L122.23 21.138V25.854H120.412V21.408L115.246 22.182L114.976 20.382L120.412 19.554V9.258ZM116.92 10.482C118.144 11.364 119.188 12.228 120.016 13.092L118.774 14.316C118.054 13.488 117.028 12.606 115.714 11.652L116.92 10.482ZM116.47 14.712C117.658 15.648 118.666 16.566 119.494 17.484L118.234 18.708C117.55 17.826 116.542 16.872 115.246 15.864L116.47 14.712ZM113.824 17.808C114.202 19.032 114.544 20.436 114.832 22.02L113.428 22.38C113.212 20.922 112.942 19.536 112.618 18.204L113.824 17.808ZM108.532 17.88L109.882 18.24C109.522 20.112 109.108 21.768 108.604 23.19L107.236 22.704C107.74 21.444 108.172 19.824 108.532 17.88ZM141.4 25.818H139.06L138.538 23.928L140.788 24.018C141.148 24.018 141.346 23.766 141.346 23.262V11.598H130.222V25.872H128.332V9.762H143.236V23.694C143.236 25.098 142.624 25.818 141.4 25.818ZM131.212 13.146H140.356V14.892H131.212V13.146ZM132.112 16.386H139.474V22.524H132.112V16.386ZM137.656 20.85V18.06H133.93V20.85H137.656ZM150.85 18.456H160.948V19.824C159.796 20.31 158.5 20.796 157.06 21.264V21.48H163.918V22.992H157.06V24.198C157.06 25.242 156.484 25.782 155.35 25.782H153.28L152.866 24.27C153.46 24.306 154.108 24.324 154.81 24.324C155.17 24.324 155.368 24.09 155.368 23.64V22.992H148.06V21.48H155.368V20.634C156.43 20.31 157.312 20.04 158.032 19.824H150.85V18.456ZM150.85 13.398L150.904 14.19H153.352V15.468H151.012L151.084 16.314H160.84L160.894 15.468H158.59V14.19H160.984L161.038 13.398H158.626V12.138H161.128L161.2 11.238H158.446V9.762H162.946L162.532 16.314H163.756V19.41H161.956V17.682H150.004V19.392H148.204V16.314H149.374L148.924 10.086C150.184 9.978 151.516 9.708 152.884 9.294L153.478 10.716C152.902 10.914 151.966 11.112 150.688 11.328L150.76 12.138H153.298V13.398H150.85ZM154.666 9.69C155.134 9.96 155.566 10.23 155.998 10.5C156.34 10.194 156.664 9.87 156.952 9.51L157.978 10.158C157.654 10.554 157.348 10.914 157.024 11.202C157.42 11.49 157.78 11.76 158.104 12.03L157.366 12.786L158.212 13.344C157.852 13.758 157.51 14.118 157.168 14.442C157.564 14.73 157.942 15 158.284 15.288L157.402 16.17C157.042 15.846 156.628 15.522 156.178 15.198C155.692 15.486 155.116 15.81 154.45 16.152L153.766 15.036C154.234 14.892 154.666 14.694 155.062 14.46C154.72 14.244 154.36 14.028 153.982 13.812L154.846 12.948C155.278 13.2 155.71 13.47 156.124 13.722C156.448 13.434 156.772 13.128 157.06 12.786C156.754 12.498 156.43 12.228 156.07 11.976C155.566 12.3 154.954 12.66 154.234 13.038L153.55 11.922C154.054 11.742 154.522 11.526 154.99 11.238C154.63 10.986 154.234 10.752 153.82 10.518L154.666 9.69ZM178.768 15.648L180.028 15.972C179.794 16.62 179.506 17.178 179.182 17.664L177.976 17.232C178.264 16.8 178.534 16.278 178.768 15.648ZM173.53 15.63C173.854 16.134 174.124 16.692 174.376 17.34L173.152 17.664C172.918 17.088 172.63 16.548 172.288 16.008L173.53 15.63ZM169.66 14.388C169.372 14.532 169.066 14.658 168.778 14.802L167.77 13.218C170.668 12.066 173.278 10.734 175.618 9.222H176.734C179.074 10.734 181.684 12.066 184.582 13.218L183.574 14.784C183.25 14.64 182.962 14.514 182.692 14.37V19.122H169.66V14.388ZM182.314 14.19C181.414 13.758 180.586 13.344 179.794 12.93V13.56H172.54V12.966C171.748 13.38 170.92 13.794 170.074 14.19H182.314ZM180.982 17.754V15.594H177.022V17.754H180.982ZM175.33 17.754V15.594H171.37V17.754H175.33ZM182.008 19.752V25.908H180.226V25.368H172.144V25.926H170.362V19.752H182.008ZM172.144 23.91H180.226V23.118H172.144V23.91ZM172.144 21.858H180.226V21.138H172.144V21.858ZM178.444 12.192C177.616 11.724 176.86 11.256 176.176 10.806C175.474 11.274 174.718 11.724 173.926 12.192H178.444Z" fill="#AE2024"/>
</svg>
